<?xml version="1.0" encoding="utf-8"?>
<svg width="522.69" height="314.352" viewBox="0 0 522.69 314.352" fill="none" xmlns="http://www.w3.org/2000/svg">
  <path d="M445.74 0.0385742C446.885 0.0253906 446.885 0.0253906 448.053 0.0119629C450.567 -0.0100098 453.08 0.00439453 455.594 0.0214844C457.346 0.0180664 459.098 0.0131836 460.85 0.00683594C464.519 -0.000488281 468.187 0.0102539 471.855 0.0336914C476.553 0.0620117 481.25 0.0456543 485.948 0.015625C489.564 -0.00244141 493.181 0.00341797 496.798 0.0163574C498.53 0.0197754 500.262 0.015625 501.994 0.00390625C504.417 -0.00878906 506.837 0.0107422 509.26 0.0385742C509.973 0.0283203 510.686 0.0183105 511.42 0.0078125C514.821 0.0800781 516.84 0.579346 519.684 2.46802C523.211 7.36768 522.688 11.9036 522.628 17.8008C522.639 19.665 522.639 19.665 522.65 21.5671C522.664 25.0146 522.656 28.4607 522.639 31.9082C522.625 35.6267 522.641 39.3452 522.653 43.0637C522.671 50.3469 522.663 57.6301 522.645 64.9133C522.631 70.8313 522.627 76.7493 522.63 82.6675C522.631 83.9302 522.631 83.9302 522.632 85.2185C522.633 86.9287 522.634 88.6389 522.635 90.3491C522.643 105.475 522.627 120.6 522.597 135.726C522.568 150.409 522.561 165.092 522.576 179.776C522.593 195.759 522.597 211.743 522.58 227.726C522.578 229.43 522.576 231.134 522.574 232.837C522.573 233.676 522.572 234.514 522.571 235.377C522.566 241.29 522.569 247.203 522.576 253.116C522.583 260.319 522.577 267.522 522.552 274.725C522.539 278.401 522.533 282.077 522.544 285.754C522.556 289.735 522.537 293.716 522.515 297.697C522.523 298.865 522.531 300.033 522.54 301.236C522.529 302.3 522.518 303.364 522.506 304.46C522.505 305.379 522.504 306.298 522.502 307.245C521.835 310.484 520.584 311.679 518 313.685C515.17 314.085 512.728 314.243 509.898 314.219C509.085 314.228 508.271 314.236 507.433 314.245C504.747 314.268 502.062 314.261 499.375 314.252C497.507 314.257 495.639 314.263 493.771 314.271C489.857 314.281 485.943 314.276 482.029 314.262C477.012 314.245 471.995 314.268 466.978 314.303C463.121 314.325 459.264 314.324 455.407 314.316C453.557 314.315 451.707 314.322 449.857 314.336C447.271 314.354 444.688 314.339 442.102 314.317C441.337 314.328 440.572 314.34 439.784 314.352C435.926 314.283 434.35 314.034 431.567 311.264C431.05 310.413 430.533 309.562 430 308.685C429.415 307.751 429.415 307.751 428.818 306.799C428.497 306.204 428.175 305.61 427.844 304.998C427.468 304.311 427.091 303.623 426.704 302.915C426.307 302.179 425.909 301.444 425.5 300.685C424.612 299.064 423.722 297.443 422.832 295.822C422.369 294.978 421.906 294.135 421.428 293.265C419.058 288.984 416.623 284.742 414.188 280.498C405.347 265.069 396.614 249.582 387.938 234.06C383.158 225.511 378.336 216.988 373.464 208.491C369.821 202.135 366.219 195.757 362.625 189.373C357.49 180.256 352.25 171.204 346.932 162.192C343.952 157.122 341.074 152.012 338.294 146.829C337.674 145.674 337.054 144.519 336.416 143.328C335.948 142.456 335.481 141.584 335 140.686C334.996 141.986 334.996 141.986 334.993 143.314C334.934 164.403 334.858 185.493 334.764 206.583C334.719 216.782 334.68 226.98 334.654 237.179C334.631 246.067 334.597 254.955 334.551 263.843C334.527 268.55 334.509 273.257 334.502 277.964C334.496 282.393 334.476 286.822 334.446 291.251C334.437 292.878 334.433 294.505 334.435 296.132C334.437 298.351 334.42 300.57 334.399 302.789C334.394 304.031 334.39 305.274 334.385 306.554C333.97 309.931 333.457 311.36 331 313.685C328.261 314.083 325.92 314.222 323.18 314.187C321.987 314.195 321.987 314.195 320.769 314.203C318.137 314.216 315.507 314.199 312.875 314.182C311.048 314.182 309.221 314.183 307.394 314.186C303.564 314.187 299.734 314.175 295.904 314.152C290.991 314.124 286.079 314.126 281.165 314.139C277.393 314.146 273.62 314.138 269.847 314.126C268.035 314.121 266.223 314.121 264.412 314.125C261.881 314.128 259.351 314.111 256.82 314.089C255.693 314.096 255.693 314.096 254.544 314.103C251.669 314.062 249.515 314.003 247.032 312.474C245.652 310.083 245.639 308.421 245.659 305.663C245.66 304.642 245.66 303.622 245.66 302.57C245.676 301.47 245.691 300.37 245.707 299.236C245.711 298.109 245.716 296.981 245.72 295.819C245.737 292.212 245.774 288.605 245.813 284.998C245.828 282.555 245.841 280.111 245.854 277.668C245.887 271.674 245.937 265.68 246 259.685C244.926 259.823 243.852 259.96 242.746 260.101C241.31 260.283 239.874 260.465 238.438 260.646C237.733 260.737 237.029 260.827 236.303 260.92C172.336 268.989 119.086 256.011 68 217.123C62.5654 213.018 56.9448 209.306 51.1797 205.689C49.3538 204.539 47.5386 203.37 45.7578 202.15C32.8618 193.401 15.2219 191.639 0 190.686C2.85645 188.342 5.36865 187.036 8.88672 185.932C9.82568 185.635 10.7649 185.337 11.7324 185.031C13.1953 184.582 13.1953 184.582 14.6875 184.123C15.6433 183.819 16.5991 183.516 17.584 183.203C42.0552 175.546 61.5955 178.031 84.1753 189.746C88.3777 191.91 92.6289 193.887 97 195.686C98.3979 196.275 98.3979 196.275 99.8242 196.877C115.179 202.519 132.391 200.267 148 196.686C149.123 196.442 150.246 196.198 151.402 195.947C170.782 191.263 189.72 183.572 208 175.686C195.466 165.784 178.373 161.021 163 157.686C162.143 157.488 161.286 157.291 160.402 157.088C144.391 154.406 128.133 158.951 112.875 163.498C88.0022 169.825 65.0095 159.034 44 146.686C44 146.025 44 145.365 44 144.686C44.5879 144.681 45.1758 144.677 45.7815 144.673C69.5334 144.384 85.6841 137.752 104.625 123.561C125.236 108.118 149.135 99.3088 174.875 99.373C176.16 99.3569 177.445 99.3408 178.77 99.3242C186.945 99.3201 194.183 100.276 202 102.686C197.66 97.6318 193.183 92.7297 188.625 87.873C184.652 83.6335 180.827 79.3452 177.188 74.8105C161.705 55.6943 144.067 48.241 120 45.6855C137.116 34.2749 161.631 31.2664 181.516 34.2051C189.744 36.3914 197.23 40.7515 204.776 44.6045C215.493 50.0378 225.474 53.6179 237.453 54.8066C238.279 54.8933 239.105 54.98 239.956 55.0691C241.97 55.2798 243.985 55.4834 246 55.6855C245.99 54.7371 245.99 54.7371 245.98 53.7695C245.914 47.2 245.868 40.6306 245.835 34.0608C245.82 31.6074 245.8 29.1543 245.774 26.7014C245.737 23.179 245.72 19.6572 245.707 16.1348C245.691 15.0347 245.676 13.9346 245.66 12.801C245.66 11.2698 245.66 11.2698 245.659 9.70776C245.649 8.35864 245.649 8.35864 245.639 6.98242C246 4.68555 246 4.68555 247.019 2.90283C250.159 0.973145 253.452 1.20898 257.032 1.18628C258.26 1.16138 258.26 1.16138 259.512 1.13623C262.221 1.08716 264.931 1.06201 267.641 1.04102C268.567 1.03125 269.493 1.02148 270.448 1.01147C275.351 0.960693 280.254 0.927734 285.158 0.909912C290.217 0.887695 295.274 0.80542 300.333 0.70874C304.228 0.645264 308.122 0.626465 312.017 0.619873C313.882 0.608887 315.746 0.581299 317.61 0.536377C332.161 0.209961 332.161 0.209961 336.611 3.78027C338.437 6.34351 339.744 8.8064 341 11.6855C341.668 12.7219 342.337 13.7585 343.025 14.8267C343.563 15.7107 344.102 16.595 344.656 17.5059C345.279 18.5234 345.901 19.5413 346.542 20.5898C347.188 21.6526 347.834 22.7153 348.5 23.8105C349.908 26.1162 351.319 28.4204 352.73 30.7246C353.086 31.3052 353.441 31.8857 353.807 32.4839C357.435 38.4097 361.121 44.2991 364.813 50.1855C369.145 57.0984 373.449 64.0266 377.688 70.998C381.296 76.9319 384.966 82.8223 388.688 88.6855C394.156 97.3013 399.507 105.986 404.844 114.684C410.167 123.35 415.542 131.982 420.952 140.594C421.528 141.511 422.103 142.428 422.695 143.373C423.19 144.161 423.686 144.948 424.196 145.76C425.855 148.451 427.487 151.156 429.113 153.868C429.653 154.77 430.194 155.672 430.751 156.601C431.163 157.289 431.575 157.977 432 158.686C432 157.902 432.001 157.118 432.002 156.31C432.017 137.239 432.059 118.169 432.132 99.0984C432.167 89.876 432.192 80.6538 432.196 71.4314C432.199 63.3933 432.219 55.3557 432.26 47.3179C432.282 43.0615 432.294 38.8054 432.286 34.5491C432.279 30.5425 432.294 26.5369 432.328 22.5305C432.336 21.0603 432.336 19.5901 432.327 18.1199C432.315 16.1116 432.337 14.1033 432.361 12.0952C432.364 10.9714 432.366 9.8479 432.369 8.69019C433.896 1.41821 439.086 -0.0559082 445.74 0.0385742Z" fill="#0051B3" fill-rule="evenodd" />
</svg>