<?xml version="1.0" encoding="utf-8"?>
<svg width="530.69" height="314.352" viewBox="0 0 530.69 314.352" fill="none" xmlns="http://www.w3.org/2000/svg">
  <g>
    <path d="M445.74 0.0384979C446.885 0.0253448 446.885 0.0253448 448.053 0.0119476C450.567 -0.0100098 453.08 0.00448608 455.594 0.0214081C457.346 0.0180359 459.098 0.0131836 460.85 0.00691223C464.519 -0.000457764 468.187 0.0102234 471.855 0.0336151C476.553 0.0621033 481.25 0.0456848 485.947 0.0157471C489.564 -0.00233459 493.181 0.00343323 496.798 0.0163879C498.53 0.0197144 500.262 0.0156403 501.994 0.00398254C504.417 -0.00874329 506.837 0.0106812 509.26 0.0384979C509.973 0.0283661 510.686 0.0182495 511.42 0.00782776C514.821 0.0800018 516.84 0.579376 519.684 2.46793C523.211 7.36772 522.688 11.9036 522.628 17.8008C522.639 19.6651 522.639 19.6651 522.649 21.567C522.664 25.0146 522.656 28.4608 522.639 31.9082C522.625 35.6268 522.641 39.3452 522.653 43.0637C522.671 50.347 522.663 57.63 522.645 64.9133C522.631 70.8314 522.627 76.7494 522.63 82.6674C522.631 83.9302 522.631 83.9302 522.632 85.2186C522.633 86.9287 522.634 88.6389 522.635 90.3491C522.644 105.475 522.626 120.6 522.597 135.726C522.568 150.409 522.561 165.092 522.576 179.776C522.593 195.759 522.597 211.743 522.58 227.726C522.578 229.43 522.576 231.134 522.574 232.837C522.573 233.676 522.572 234.514 522.571 235.377C522.566 241.29 522.569 247.203 522.576 253.116C522.583 260.319 522.577 267.522 522.552 274.725C522.539 278.401 522.533 282.077 522.544 285.754C522.556 289.735 522.537 293.716 522.515 297.697C522.523 298.865 522.531 300.033 522.54 301.236C522.528 302.3 522.518 303.363 522.506 304.46C522.505 305.379 522.504 306.298 522.502 307.245C521.835 310.484 520.583 311.679 518 313.685C515.17 314.085 512.728 314.243 509.898 314.219C509.085 314.228 508.271 314.236 507.434 314.245C504.747 314.268 502.062 314.261 499.375 314.252C497.507 314.257 495.639 314.263 493.771 314.271C489.857 314.281 485.943 314.276 482.029 314.262C477.012 314.245 471.996 314.268 466.978 314.303C463.121 314.325 459.264 314.324 455.407 314.316C453.557 314.315 451.707 314.322 449.857 314.336C447.271 314.354 444.688 314.339 442.102 314.317C441.337 314.328 440.572 314.34 439.784 314.352C435.926 314.283 434.35 314.034 431.567 311.264C431.05 310.413 430.533 309.562 430 308.685C429.415 307.752 429.415 307.752 428.818 306.799C428.497 306.204 428.175 305.61 427.844 304.998C427.468 304.311 427.091 303.623 426.704 302.915C426.307 302.179 425.909 301.444 425.5 300.685C424.612 299.064 423.723 297.443 422.832 295.822C422.369 294.978 421.905 294.134 421.428 293.265C419.058 288.984 416.623 284.742 414.188 280.498C405.347 265.069 396.614 249.582 387.938 234.06C383.158 225.511 378.336 216.988 373.464 208.491C369.821 202.135 366.219 195.757 362.625 189.373C357.49 180.256 352.25 171.204 346.932 162.192C343.952 157.122 341.074 152.012 338.294 146.829C337.674 145.674 337.054 144.518 336.416 143.328C335.948 142.456 335.481 141.584 335 140.685C334.997 141.986 334.997 141.986 334.993 143.314C334.934 164.403 334.858 185.493 334.764 206.583C334.719 216.782 334.68 226.98 334.653 237.179C334.631 246.067 334.597 254.955 334.551 263.843C334.527 268.55 334.509 273.257 334.502 277.964C334.496 282.393 334.477 286.822 334.446 291.251C334.437 292.878 334.433 294.505 334.435 296.132C334.437 298.351 334.42 300.57 334.399 302.789C334.394 304.031 334.39 305.274 334.385 306.554C333.97 309.931 333.457 311.36 331 313.685C328.261 314.083 325.92 314.222 323.18 314.187C321.986 314.195 321.986 314.195 320.77 314.204C318.138 314.216 315.507 314.2 312.875 314.182C311.048 314.182 309.221 314.183 307.394 314.186C303.564 314.187 299.734 314.175 295.904 314.152C290.991 314.124 286.079 314.126 281.166 314.139C277.393 314.146 273.62 314.138 269.847 314.126C268.035 314.121 266.223 314.121 264.412 314.125C261.881 314.128 259.351 314.111 256.82 314.09C255.693 314.096 255.693 314.096 254.544 314.103C251.669 314.062 249.515 314.003 247.033 312.474C245.652 310.083 245.639 308.421 245.659 305.663C245.66 304.642 245.66 303.622 245.66 302.57C245.676 301.47 245.691 300.37 245.707 299.236C245.711 298.108 245.715 296.981 245.72 295.819C245.737 292.212 245.774 288.605 245.813 284.998C245.828 282.555 245.841 280.111 245.854 277.668C245.887 271.674 245.937 265.68 246 259.685C244.926 259.823 243.853 259.96 242.746 260.101C241.31 260.283 239.874 260.465 238.438 260.646C237.733 260.737 237.028 260.827 236.303 260.92C172.336 268.989 119.086 256.011 68 217.123C62.5654 213.018 56.9448 209.306 51.1797 205.689C49.354 204.539 47.5386 203.37 45.7578 202.15C32.8618 193.401 15.2217 191.639 0 190.685C2.85645 188.342 5.36865 187.036 8.88672 185.932C9.82568 185.634 10.7646 185.337 11.7324 185.031C13.1953 184.582 13.1953 184.582 14.6875 184.123C15.6436 183.819 16.5991 183.516 17.584 183.203C42.0552 175.546 61.5957 178.031 84.1753 189.746C88.3774 191.91 92.6289 193.887 97 195.685C98.3979 196.275 98.3979 196.275 99.8242 196.877C115.179 202.519 132.391 200.267 148 196.685C149.123 196.442 150.246 196.198 151.402 195.947C170.782 191.263 189.72 183.572 208 175.685C195.466 165.784 178.374 161.021 163 157.685C162.143 157.488 161.286 157.291 160.402 157.088C144.391 154.406 128.133 158.951 112.875 163.498C88.002 169.825 65.0098 159.034 44 146.685C44 146.025 44 145.365 44 144.685C44.5879 144.681 45.1758 144.677 45.7813 144.673C69.5332 144.383 85.6841 137.752 104.625 123.56C125.236 108.118 149.135 99.3088 174.875 99.373C176.16 99.3568 177.445 99.3407 178.77 99.3241C186.944 99.32 194.183 100.276 202 102.685C197.66 97.6318 193.183 92.7297 188.625 87.873C184.652 83.6335 180.827 79.3453 177.188 74.8105C161.705 55.6944 144.067 48.241 120 45.6855C137.116 34.2749 161.63 31.2664 181.516 34.205C189.744 36.3913 197.23 40.7515 204.776 44.6044C215.493 50.0378 225.474 53.618 237.453 54.8066C238.279 54.8932 239.104 54.9799 239.956 55.0691C241.97 55.2797 243.985 55.4833 246 55.6855C245.99 54.7371 245.99 54.7371 245.98 53.7695C245.914 47.2 245.868 40.6305 245.835 34.0607C245.82 31.6075 245.8 29.1544 245.773 26.7013C245.737 23.179 245.72 19.6571 245.707 16.1347C245.691 15.0346 245.676 13.9345 245.66 12.8011C245.66 11.2699 245.66 11.2699 245.659 9.70768C245.649 8.35866 245.649 8.35866 245.639 6.98238C246 4.68546 246 4.68546 247.019 2.90278C250.159 0.97319 253.452 1.209 257.032 1.1862C258.26 1.16144 258.26 1.16144 259.512 1.1362C262.221 1.08723 264.931 1.06195 267.641 1.04094C268.567 1.0312 269.493 1.02147 270.448 1.01144C275.351 0.960602 280.254 0.927841 285.158 0.909836C290.217 0.887802 295.274 0.805389 300.333 0.70871C304.228 0.645218 308.122 0.626526 312.017 0.619873C313.882 0.608963 315.746 0.581329 317.61 0.536469C332.161 0.2099 332.161 0.2099 336.611 3.78031C338.437 6.34341 339.744 8.8064 341 11.6855C341.668 12.722 342.337 13.7586 343.025 14.8266C343.563 15.7107 344.102 16.5948 344.656 17.5058C345.279 18.5235 345.901 19.5412 346.542 20.5898C347.188 21.6526 347.834 22.7154 348.5 23.8105C349.909 26.1162 351.319 28.4204 352.73 30.7245C353.085 31.3051 353.441 31.8858 353.807 32.484C357.435 38.4096 361.121 44.2991 364.813 50.1855C369.146 57.0985 373.449 64.0267 377.688 70.998C381.296 76.9319 384.965 82.8222 388.688 88.6855C394.156 97.3012 399.507 105.986 404.844 114.684C410.167 123.35 415.542 131.982 420.952 140.594C421.527 141.511 422.103 142.428 422.695 143.373C423.19 144.161 423.686 144.948 424.196 145.76C425.855 148.451 427.487 151.156 429.113 153.868C429.653 154.77 430.194 155.672 430.751 156.601C431.163 157.289 431.575 157.977 432 158.685C432 157.902 432.001 157.118 432.001 156.31C432.017 137.239 432.059 118.169 432.132 99.0984C432.167 89.876 432.192 80.6538 432.195 71.4313C432.199 63.3934 432.219 55.3558 432.261 47.3179C432.282 43.0616 432.294 38.8055 432.286 34.5491C432.279 30.5426 432.294 26.5368 432.328 22.5304C432.336 21.0603 432.336 19.5901 432.327 18.1199C432.315 16.1117 432.337 14.1033 432.361 12.0952C432.363 10.9715 432.366 9.84788 432.369 8.69016C433.896 1.41809 439.086 -0.0559845 445.74 0.0384979Z" fill="#FC4850" fill-rule="evenodd" transform="translate(8 0)" />
    <path d="M84 5.24711C84.7476 5.54746 85.4951 5.84781 86.2656 6.15726C91.5952 8.50674 95.9238 12.1169 100 16.2471C100 16.5771 100 16.9071 100 17.2471C98.5981 17.1388 98.5981 17.1388 97.168 17.0284C77.085 15.6093 59.3062 14.9618 40.7852 24.0127C27.4023 29.9439 14.2861 30.4031 0 30.2471C0.908691 25.0055 4.42529 21.9662 8 18.2471C8.50391 17.7173 9.00781 17.1875 9.52734 16.6416C27.4658 -0.38393 61.9526 -4.64687 84 5.24711Z" fill="#FC4850" fill-rule="evenodd" transform="translate(74 75)" />
    <path d="M0 0.0745087C19.9058 -0.569145 37.3794 2.80788 53 16.0745C56.7847 19.6449 59.5752 22.4878 60.9375 27.5745C60.958 28.3995 60.9785 29.2245 61 30.0745C53.7529 29.6417 48.2852 27.8533 41.75 24.762C40.8047 24.3241 39.8599 23.8862 38.8857 23.4351C29.4126 18.9572 20.3701 13.7815 11.3569 8.45097C7.60693 6.26103 3.80664 4.16409 0 2.07451C0 1.41451 0 0.754509 0 0.0745087Z" fill="#FC4850" fill-rule="evenodd" transform="translate(0 208)" />
    <path d="M29.4072 0.15773C31.7324 0.175903 34.0576 0.178242 36.3828 0.177994C46.2876 0.201958 56.123 0.630459 66 1.36354C63.6255 3.8822 61.6045 5.82148 58.4258 7.2151C57.7573 7.50901 57.0889 7.80292 56.4004 8.10573C55.3667 8.54272 55.3667 8.54272 54.3125 8.98854C53.6431 9.28761 52.9731 9.58667 52.2832 9.89479C44.1714 13.3968 36.3735 14.7379 27.5625 14.676C26.7305 14.6711 25.8989 14.6662 25.042 14.6611C15.2168 14.4737 8.02734 12.0363 0 6.36354C0.686523 4.44093 0.686523 4.44093 2 2.36354C10.3579 -0.762779 20.582 0.0867348 29.4072 0.15773Z" fill="#FC4850" fill-rule="evenodd" transform="translate(116 170)" />
  </g>
</svg>