<?xml version="1.0" encoding="utf-8"?>
<svg width="4647" height="1005" viewBox="0 0 4647 1005" fill="none" xmlns="http://www.w3.org/2000/svg">
  <g>
    <path d="M758.976 0.0744476C760.925 0.0490265 760.925 0.0490265 762.914 0.0231018C767.195 -0.0193481 771.473 0.00866699 775.754 0.0413971C778.737 0.0348816 781.72 0.0254822 784.704 0.0133514C790.95 -0.00088501 797.196 0.0197754 803.442 0.0650024C811.442 0.120102 819.439 0.0883789 827.438 0.0304565C833.597 -0.0045166 839.755 0.00665283 845.914 0.0316925C848.863 0.0381317 851.812 0.0302582 854.761 0.00770569C858.886 -0.0169067 863.008 0.0206604 867.133 0.0744476C868.347 0.0548706 869.56 0.0352936 870.811 0.0151215C876.602 0.154724 880.04 1.12059 884.882 4.77333C890.888 14.2502 889.998 23.0231 889.896 34.4293C889.914 38.035 889.914 38.035 889.932 41.7136C889.957 48.3817 889.944 55.0471 889.914 61.7149C889.891 68.907 889.917 76.099 889.937 83.2911C889.969 97.3781 889.954 111.464 889.924 125.551C889.9 136.998 889.893 148.444 889.899 159.89C889.9 162.333 889.9 162.333 889.901 164.824C889.903 168.132 889.905 171.44 889.907 174.748C889.921 204.003 889.893 233.257 889.842 262.512C889.793 290.912 889.781 319.311 889.807 347.711C889.836 378.625 889.843 409.54 889.813 440.454C889.81 443.749 889.807 447.044 889.804 450.339C889.802 451.961 889.801 453.582 889.799 455.252C889.789 466.689 889.795 478.125 889.806 489.561C889.819 503.492 889.808 517.424 889.765 531.355C889.744 538.466 889.733 545.576 889.752 552.687C889.773 560.388 889.74 568.087 889.702 575.787C889.716 578.046 889.73 580.304 889.745 582.632C889.726 584.689 889.707 586.747 889.688 588.867C889.686 590.645 889.684 592.423 889.682 594.254C888.546 600.518 886.414 602.83 882.015 606.711C877.197 607.484 873.038 607.789 868.22 607.743C866.835 607.759 865.45 607.776 864.023 607.793C859.449 607.837 854.876 607.824 850.302 607.806C847.121 607.816 843.94 607.829 840.76 607.843C834.095 607.863 827.431 607.854 820.767 607.826C812.223 607.792 803.682 607.838 795.138 607.906C788.571 607.948 782.004 607.946 775.436 607.93C772.286 607.928 769.136 607.941 765.986 607.97C761.583 608.003 757.183 607.975 752.78 607.931C751.478 607.954 750.176 607.977 748.834 608C742.265 607.866 739.581 607.385 734.844 602.027C733.963 600.381 733.082 598.736 732.175 597.04C731.179 595.234 731.179 595.234 730.163 593.391C729.615 592.242 729.067 591.092 728.503 589.908C727.863 588.579 727.222 587.249 726.562 585.88C725.886 584.456 725.209 583.033 724.512 581.567C723 578.43 721.486 575.295 719.969 572.161C719.181 570.529 718.392 568.897 717.579 567.215C713.544 558.936 709.397 550.729 705.25 542.522C690.198 512.681 675.327 482.725 660.553 452.705C652.415 436.17 644.205 419.684 635.909 403.25C629.706 390.957 623.573 378.621 617.453 366.273C608.709 348.64 599.788 331.131 590.732 313.702C585.658 303.895 580.758 294.012 576.025 283.987C574.969 281.753 573.913 279.519 572.825 277.217C572.03 275.53 571.235 273.843 570.415 272.105C570.409 274.621 570.409 274.621 570.403 277.188C570.302 317.979 570.174 358.769 570.014 399.56C569.937 419.285 569.87 439.011 569.825 458.737C569.786 475.927 569.729 493.118 569.651 510.308C569.61 519.412 569.578 528.517 569.568 537.621C569.557 546.188 569.524 554.754 569.471 563.32C569.456 566.467 569.45 569.614 569.453 572.76C569.456 577.052 569.427 581.343 569.391 585.635C569.383 588.038 569.376 590.441 569.368 592.917C568.661 599.449 567.788 602.213 563.604 606.711C558.94 607.48 554.955 607.749 550.288 607.681C548.257 607.697 548.257 607.697 546.184 607.713C541.703 607.737 537.223 607.705 532.742 607.67C529.631 607.671 526.52 607.674 523.41 607.679C516.888 607.682 510.367 607.657 503.846 607.613C495.48 607.558 487.115 607.564 478.749 607.588C472.325 607.602 465.901 607.587 459.477 607.563C456.392 607.554 453.307 607.553 450.222 607.561C445.913 607.566 441.605 607.535 437.296 607.492C435.377 607.505 435.377 607.505 433.42 607.519C428.526 607.439 424.858 607.324 420.63 604.368C418.28 599.744 418.257 596.529 418.292 591.195C418.292 589.22 418.293 587.246 418.293 585.212C418.32 583.084 418.346 580.956 418.373 578.764C418.38 576.583 418.388 574.402 418.395 572.154C418.424 565.177 418.488 558.202 418.553 551.225C418.578 546.499 418.602 541.774 418.623 537.048C418.679 525.454 418.764 513.861 418.872 502.267C417.044 502.533 415.215 502.798 413.331 503.071C410.886 503.423 408.441 503.774 405.995 504.126C404.796 504.3 403.596 504.475 402.36 504.654C293.442 520.262 202.772 495.16 115.786 419.946C106.532 412.006 96.9618 404.827 87.1453 397.832C84.0363 395.606 80.9456 393.345 77.9133 390.987C55.9551 374.065 25.9188 370.656 0 368.812C4.86389 364.279 9.14117 361.754 15.1317 359.617C16.7307 359.042 18.3297 358.468 19.9772 357.876C22.4679 357.006 22.4679 357.006 25.0089 356.119C26.6364 355.532 28.264 354.945 29.9408 354.34C71.6085 339.531 104.881 344.337 143.328 366.994C150.483 371.181 157.722 375.004 165.165 378.483C167.545 379.623 167.545 379.623 169.974 380.787C196.119 391.7 225.426 387.344 252.004 380.417C253.916 379.946 255.828 379.474 257.798 378.989C290.796 369.929 323.042 355.053 354.168 339.8C332.825 320.649 303.722 311.436 277.545 304.985C276.086 304.604 274.626 304.222 273.122 303.829C245.858 298.643 218.176 307.433 192.196 316.228C149.844 328.465 110.694 307.594 74.9202 283.71C74.9202 282.433 74.9202 281.157 74.9202 279.842C75.9212 279.834 76.9222 279.826 77.9536 279.818C118.397 279.258 145.897 266.431 178.148 238.983C213.244 209.115 253.937 192.077 297.765 192.201C299.953 192.17 302.142 192.139 304.396 192.107C318.316 192.099 330.642 193.947 343.952 198.608C336.562 188.833 328.938 179.352 321.178 169.958C314.412 161.759 307.899 153.465 301.703 144.694C275.339 107.721 245.308 93.3047 204.328 88.362C233.472 66.2923 275.213 60.4735 309.072 66.1572C323.083 70.3857 335.831 78.819 348.679 86.2711C366.927 96.7799 383.922 103.705 404.319 106.003C405.725 106.171 407.131 106.339 408.58 106.511C412.01 106.919 415.441 107.312 418.872 107.703C418.855 105.869 418.855 105.869 418.838 103.998C418.725 91.2912 418.648 78.585 418.591 65.8781C418.566 61.1333 418.531 56.3886 418.487 51.6441C418.425 44.8315 418.396 38.0196 418.373 31.2067C418.347 29.079 418.32 26.9513 418.293 24.7591C418.293 21.7975 418.293 21.7975 418.292 18.776C418.275 16.1668 418.275 16.1668 418.258 13.5049C418.872 9.06233 418.872 9.06233 420.608 5.61438C425.954 1.88228 431.56 2.33838 437.657 2.29427C439.747 2.2464 439.747 2.2464 441.879 2.19756C446.493 2.10287 451.106 2.05397 455.72 2.01331C457.297 1.99449 458.875 1.97566 460.5 1.95628C468.849 1.85794 477.198 1.79459 485.547 1.75974C494.162 1.71715 502.772 1.55774 511.386 1.37074C518.018 1.24794 524.649 1.21179 531.281 1.19893C534.456 1.17783 537.631 1.12439 540.804 1.0376C565.581 0.405975 565.581 0.405975 573.158 7.31165C576.267 12.269 578.493 17.0328 580.632 22.6013C581.77 24.6062 582.908 26.611 584.08 28.6766C584.997 30.3867 585.913 32.0967 586.857 33.8586C587.917 35.827 588.977 37.7954 590.068 39.8234C591.168 41.8791 592.269 43.9348 593.402 46.0527C595.8 50.5122 598.203 54.9689 600.605 59.4255C601.21 60.5485 601.815 61.6715 602.438 62.8285C608.616 74.2895 614.892 85.6806 621.178 97.0656C628.555 110.436 635.883 123.836 643.1 137.32C649.244 148.797 655.493 160.19 661.831 171.53C671.141 188.194 680.253 204.992 689.341 221.814C698.403 238.576 707.557 255.272 716.769 271.929C717.748 273.702 718.728 275.476 719.737 277.303C720.58 278.826 721.423 280.35 722.292 281.919C725.117 287.124 727.896 292.357 730.664 297.603C731.584 299.347 732.505 301.091 733.453 302.888C734.155 304.218 734.857 305.549 735.58 306.92C735.581 305.403 735.582 303.887 735.583 302.325C735.608 265.44 735.681 228.555 735.805 191.67C735.864 173.833 735.907 155.995 735.913 138.158C735.918 122.612 735.953 107.066 736.024 91.5194C736.06 83.287 736.082 75.0552 736.067 66.8227C736.054 59.0735 736.081 51.3258 736.139 43.5769C736.153 40.7335 736.152 37.8899 736.136 35.0464C736.116 31.1622 736.154 27.2778 736.194 23.3938C736.199 21.2205 736.204 19.0471 736.209 16.808C738.808 2.74278 747.646 -0.108276 758.976 0.0744476Z" fill="#FFFFFF" fill-rule="evenodd" transform="translate(752 198)" />
    <path d="M142.8 10.227C144.071 10.8124 145.342 11.3978 146.652 12.001C155.712 16.5803 163.071 23.6168 170 31.6668C170 32.31 170 32.9532 170 33.6159C167.617 33.4048 167.617 33.4048 165.186 33.1895C131.044 30.4237 100.82 29.1617 69.3348 46.8026C46.5842 58.3629 24.2863 59.258 0 58.9539C1.54449 48.7377 7.52313 42.8137 13.6 35.565C14.4568 34.5323 15.3137 33.4997 16.1965 32.4358C46.6919 -0.748322 105.319 -9.0571 142.8 10.227Z" fill="#FFFFFF" fill-rule="evenodd" transform="translate(864 343)" />
    <path d="M0 0.143677C33.9375 -1.09766 63.7285 5.41516 90.3607 31.0004C96.8133 37.886 101.57 43.3687 103.893 53.1786C103.929 54.7697 103.964 56.3607 104 58C91.6441 57.1653 82.322 53.7162 71.1803 47.7546C69.569 46.9102 67.9576 46.0657 66.2974 45.1956C50.146 36.5598 34.7294 26.5782 19.3627 16.2981C12.9694 12.0746 6.48969 8.03064 0 4.00079C0 2.72797 0 1.45508 0 0.143677Z" fill="#FFFFFF" fill-rule="evenodd" transform="translate(738 600)" />
    <path d="M49.9032 0.300903C53.8491 0.335571 57.7944 0.340027 61.7405 0.339539C78.5487 0.385254 95.2394 1.20264 112 2.60107C107.97 7.4057 104.541 11.1051 99.1467 13.7635C98.0126 14.3242 96.8783 14.8849 95.7097 15.4625C93.9559 16.2961 93.9559 16.2961 92.1666 17.1466C91.0303 17.7171 89.8938 18.2876 88.723 18.8754C74.9572 25.5558 61.7244 28.1142 46.7727 27.9961C45.3611 27.9868 43.9495 27.9774 42.4951 27.9677C25.8229 27.61 13.6218 22.9606 0 12.1392C1.16504 8.47156 1.16504 8.47156 3.39392 4.50873C17.5771 -1.45508 34.9268 0.165466 49.9032 0.300903Z" fill="#FFFFFF" fill-rule="evenodd" transform="translate(936 527)" />
    <path d="M122.159 120.739L122.159 484.375L23.4375 484.375L23.4375 120.739L122.159 120.739ZM159.091 200.284L159.091 120.739L475.142 120.739L475.142 200.284L365.767 200.284L365.767 484.375L268.466 484.375L268.466 200.284L159.091 200.284ZM512.074 484.375L512.074 120.739L669.034 120.739Q709.517 120.739 739.879 135.476Q770.241 150.213 787.109 177.912Q803.977 205.611 803.977 244.318Q803.977 282.138 787.553 308.416Q771.129 334.695 742.188 348.722L816.051 484.375L708.807 484.375L644.886 364.347L610.795 364.347L610.795 484.375L512.074 484.375ZM610.795 287.642L645.597 287.642Q671.52 287.642 686.257 277.61Q700.994 267.578 700.994 244.318Q700.994 220.881 686.257 210.227Q671.52 199.574 645.597 199.574L610.795 199.574L610.795 287.642ZM1198.15 302.557Q1198.15 363.281 1174.54 404.918Q1150.92 446.555 1110.8 467.951Q1070.67 489.347 1021.31 489.347Q971.591 489.347 931.552 467.773Q891.513 446.2 867.986 404.563Q844.46 362.926 844.46 302.557Q844.46 241.832 867.986 200.195Q891.513 158.558 931.552 137.163Q971.591 115.767 1021.31 115.767Q1070.67 115.767 1110.8 137.163Q1150.92 158.558 1174.54 200.195Q1198.15 241.832 1198.15 302.557ZM1096.59 302.557Q1096.59 253.551 1077.33 227.628Q1058.06 201.704 1021.31 201.705Q984.552 201.705 965.288 227.628Q946.023 253.551 946.023 302.557Q946.023 351.563 965.288 377.486Q984.552 403.409 1021.31 403.409Q1058.06 403.409 1077.33 377.486Q1096.59 351.563 1096.59 302.557ZM1320.31 120.739L1394.89 377.131L1397.73 377.131L1472.3 120.739L1583.81 120.739L1463.78 484.375L1328.84 484.375L1208.81 120.739L1320.31 120.739ZM1717.33 120.739L1717.33 484.375L1618.61 484.375L1618.61 120.739L1717.33 120.739ZM1764.2 120.739L1887.07 120.739L1971.59 326.705L1975.85 326.705L2060.37 120.739L2183.24 120.739L2183.24 484.375L2086.65 484.375L2086.65 274.148L2083.81 274.148L2002.84 481.534L1944.6 481.534L1863.64 272.727L1860.8 272.727L1860.8 484.375L1764.2 484.375L1764.2 120.739Z" fill="#FFFFFF" transform="translate(1702 201)" />
  </g>
</svg>